<svg width="124" height="27" viewBox="0 0 124 27" fill="none" xmlns="http://www.w3.org/2000/svg">
<path d="M20.349 11.703C19.97 12.0843 19.6798 12.5445 19.499 13.0507C19.3182 13.557 19.2513 14.0969 19.303 14.632L19.285 14.614C19.3382 15.2439 19.2532 15.8777 19.0361 16.4714C18.819 17.065 18.475 17.6041 18.0281 18.0511C17.5811 18.498 17.042 18.8421 16.4483 19.0591C15.8547 19.2762 15.2208 19.3612 14.591 19.308L14.609 19.326C13.8556 19.2559 13.0989 19.4198 12.442 19.7955C11.7852 20.1712 11.2602 20.7403 10.9387 21.4253C10.6172 22.1103 10.5147 22.8777 10.6453 23.6231C10.776 24.3684 11.1333 25.0553 11.6686 25.5901C12.2039 26.1249 12.8911 26.4816 13.6365 26.6115C14.382 26.7415 15.1493 26.6383 15.834 26.3162C16.5187 25.994 17.0873 25.4686 17.4624 24.8114C17.8375 24.1542 18.0008 23.3974 17.93 22.644L17.949 22.662C17.8958 22.0322 17.9807 21.3983 18.1978 20.8046C18.4149 20.211 18.759 19.6719 19.2059 19.2249C19.6529 18.778 20.192 18.4339 20.7856 18.2169C21.3793 17.9998 22.0131 17.9148 22.643 17.968L22.624 17.95C23.2394 18.0053 23.8589 17.9044 24.425 17.6566C24.991 17.4088 25.4854 17.0221 25.8622 16.5324C26.239 16.0427 26.4862 15.4657 26.5806 14.8551C26.6751 14.2444 26.6139 13.6198 26.4027 13.039C26.1915 12.4583 25.8371 11.9403 25.3724 11.533C24.9077 11.1257 24.3477 10.8423 23.7443 10.7091C23.1409 10.5759 22.5136 10.5971 21.9206 10.7708C21.3276 10.9446 20.7881 11.2652 20.352 11.703H20.349Z" fill="#F5F5F5"/>
<path d="M12.972 16.968L12.953 16.95C13.4883 17.0039 14.0289 16.9382 14.5358 16.7576C15.0426 16.577 15.503 16.2861 15.8836 15.9058C16.2641 15.5255 16.5555 15.0653 16.7364 14.5586C16.9174 14.0519 16.9835 13.5114 16.93 12.976L16.949 12.994C16.8958 12.3641 16.9808 11.7303 17.1978 11.1366C17.4149 10.543 17.759 10.0039 18.2059 9.55693C18.6529 9.11003 19.192 8.76593 19.7856 8.54893C20.3793 8.33179 21.0131 8.24686 21.643 8.30003L21.624 8.28203C22.3775 8.35283 23.1344 8.18939 23.7916 7.81413C24.4489 7.43887 24.9743 6.87 25.2963 6.18513C25.6183 5.50027 25.7212 4.73274 25.591 3.98723C25.4608 3.24172 25.1038 2.55454 24.5686 2.0194C24.0335 1.48427 23.3463 1.12723 22.6008 0.997007C21.8553 0.866777 21.0878 0.969687 20.4029 1.29171C19.718 1.61372 19.1492 2.13917 18.7739 2.79638C18.3986 3.45358 18.2352 4.21055 18.306 4.96403L18.288 4.94503C18.3413 5.57492 18.2565 6.20886 18.0395 6.80258C17.8225 7.3963 17.4784 7.93549 17.0315 8.38253C16.5845 8.82943 16.0453 9.17353 15.4516 9.39053C14.8578 9.60753 14.2239 9.69233 13.594 9.63903L13.612 9.65803C13.0767 9.60413 12.536 9.66983 12.0292 9.85043C11.5224 10.0309 11.062 10.3219 10.6814 10.7022C10.3008 11.0825 10.0095 11.5427 9.82846 12.0494C9.64756 12.5561 9.58146 13.0966 9.63496 13.632L9.61696 13.614C9.66996 14.2438 9.58486 14.8776 9.36776 15.4712C9.15056 16.0647 8.80656 16.6038 8.35966 17.0507C7.91272 17.4976 7.37368 17.8416 6.78012 18.0588C6.18656 18.2759 5.55277 18.361 4.92296 18.308L4.94096 18.326C4.18748 18.2552 3.43051 18.4186 2.7733 18.7939C2.1161 19.1692 1.59065 19.738 1.26864 20.4229C0.946624 21.1078 0.843704 21.8753 0.973934 22.6208C1.10416 23.3663 1.4612 24.0535 1.99633 24.5886C2.53147 25.1238 3.21865 25.4808 3.96416 25.611C4.70967 25.7412 5.4772 25.6383 6.16207 25.3163C6.84693 24.9943 7.4158 24.4689 7.79106 23.8117C8.16636 23.1544 8.32976 22.3975 8.25896 21.644L8.27796 21.662C8.22476 21.0321 8.30976 20.3983 8.52686 19.8046C8.74386 19.211 9.08796 18.6719 9.53486 18.2249C9.98186 17.778 10.521 17.4339 11.1146 17.2169C11.7083 16.9998 12.3421 16.9148 12.972 16.968Z" fill="#F5F5F5"/>
<path d="M6.2699 14.961C6.64892 14.5798 6.9391 14.1196 7.11974 13.6133C7.30038 13.107 7.36702 12.567 7.3149 12.032L7.33389 12.05C7.28069 11.42 7.36565 10.7859 7.58286 10.1921C7.80007 9.59827 8.1443 9.05907 8.5915 8.61207C9.0387 8.16509 9.578 7.8211 10.1719 7.60415C10.7658 7.38719 11.3999 7.30249 12.0299 7.35597L12.0109 7.33797C12.7641 7.40854 13.5208 7.24505 14.1777 6.86981C14.8346 6.49458 15.3597 5.92585 15.6816 5.2412C16.0034 4.55654 16.1062 3.78929 15.976 3.04406C15.8458 2.29883 15.4888 1.61191 14.9539 1.07697C14.419 0.54203 13.732 0.18511 12.9868 0.0548905C12.2416 -0.0753395 11.4743 0.0274805 10.7897 0.3493C10.105 0.67112 9.5363 1.19629 9.1611 1.85319C8.7858 2.51009 8.6223 3.26675 8.6929 4.01997L8.6749 4.00197C8.7281 4.63182 8.6431 5.26569 8.426 5.85933C8.2089 6.45297 7.86492 6.99208 7.41796 7.43904C6.97101 7.886 6.43189 8.23003 5.83825 8.44707C5.24461 8.66417 4.61075 8.74917 3.9809 8.69597L3.9989 8.71397C3.38347 8.65877 2.76406 8.75987 2.19808 9.00777C1.6321 9.25567 1.13785 9.64247 0.761139 10.1323C0.384429 10.622 0.137449 11.199 0.0430689 11.8096C-0.0513011 12.4203 0.0099889 13.0449 0.221259 13.6255C0.432529 14.2062 0.786959 14.7241 1.25169 15.1313C1.71642 15.5386 2.27642 15.8219 2.8798 15.9551C3.48317 16.0882 4.1104 16.0669 4.70337 15.8932C5.29633 15.7194 5.83583 15.3988 6.27189 14.961H6.2699Z" fill="#F5F5F5"/>
<mask id="path-4-outside-1_885_81" maskUnits="userSpaceOnUse" x="31" y="4" width="86" height="24" fill="black">
<rect fill="white" x="31" y="4" width="86" height="24"/>
<path d="M35.8804 21.2117C35.2689 21.1725 34.677 21.051 34.1046 20.8471C33.5402 20.6354 33.0384 20.3493 32.5994 19.9886C32.1603 19.628 31.8232 19.1968 31.588 18.695L34.0106 17.6602C34.1046 17.817 34.2575 17.9855 34.4692 18.1658C34.6809 18.3383 34.9318 18.4834 35.2218 18.601C35.5198 18.7186 35.8451 18.7774 36.1979 18.7774C36.4958 18.7774 36.7781 18.7382 37.0446 18.6598C37.319 18.5735 37.5386 18.4442 37.7032 18.2717C37.8757 18.0992 37.9619 17.8758 37.9619 17.6014C37.9619 17.3113 37.86 17.0878 37.6562 16.931C37.4602 16.7664 37.2093 16.6449 36.9035 16.5665C36.6056 16.4802 36.3155 16.4018 36.0333 16.3313C35.2885 16.1823 34.5946 15.951 33.9518 15.6374C33.3167 15.3238 32.8032 14.9201 32.4112 14.4262C32.027 13.9244 31.835 13.3207 31.835 12.6151C31.835 11.839 32.0388 11.1686 32.4465 10.6042C32.862 10.0397 33.399 9.60456 34.0576 9.2988C34.724 8.99304 35.4414 8.84016 36.2097 8.84016C37.1426 8.84016 37.9972 9.03616 38.7734 9.42816C39.5574 9.81232 40.1767 10.3572 40.6314 11.0628L38.3618 12.4034C38.252 12.2153 38.0991 12.0428 37.9031 11.886C37.7071 11.7214 37.4837 11.5881 37.2328 11.4862C36.9819 11.3764 36.7193 11.3137 36.4449 11.298C36.0921 11.2823 35.7706 11.3137 35.4806 11.3921C35.1905 11.4705 34.9553 11.6038 34.775 11.7919C34.6025 11.9801 34.5162 12.231 34.5162 12.5446C34.5162 12.8425 34.6338 13.0659 34.869 13.2149C35.1042 13.356 35.3865 13.4658 35.7158 13.5442C36.0529 13.6226 36.3743 13.7088 36.6801 13.8029C37.37 14.0302 38.0168 14.3086 38.6205 14.6378C39.232 14.9671 39.722 15.3709 40.0905 15.8491C40.459 16.3274 40.6354 16.8997 40.6197 17.5661C40.6197 18.3266 40.3923 18.993 39.9376 19.5653C39.4829 20.1298 38.8949 20.561 38.1736 20.8589C37.4602 21.1568 36.6958 21.2744 35.8804 21.2117ZM40.7507 21V9.24H43.6201V10.2866C44.02 9.86328 44.4982 9.53008 45.0549 9.28704C45.6115 9.03616 46.2113 8.91072 46.8541 8.91072C47.6695 8.91072 48.4182 9.1028 49.1003 9.48696C49.7902 9.87112 50.339 10.3846 50.7467 11.0275C51.1622 10.3846 51.711 9.87112 52.3931 9.48696C53.0752 9.1028 53.8239 8.91072 54.6393 8.91072C55.5017 8.91072 56.2817 9.1224 56.9795 9.54576C57.6851 9.96128 58.2457 10.5218 58.6612 11.2274C59.0845 11.9252 59.2962 12.7053 59.2962 13.5677V21H56.4268V14.3321C56.4268 13.8774 56.3131 13.4618 56.0857 13.0855C55.8662 12.7014 55.5683 12.3956 55.192 12.1682C54.8235 11.933 54.408 11.8154 53.9454 11.8154C53.4829 11.8154 53.0634 11.9291 52.6871 12.1565C52.3186 12.376 52.0207 12.6739 51.7933 13.0502C51.566 13.4266 51.4523 13.8538 51.4523 14.3321V21H48.5829V14.3321C48.5829 13.8538 48.4731 13.4266 48.2536 13.0502C48.0341 12.6739 47.7361 12.376 47.3598 12.1565C46.9835 11.9291 46.5641 11.8154 46.1015 11.8154C45.6468 11.8154 45.2313 11.933 44.8549 12.1682C44.4786 12.3956 44.1768 12.7014 43.9494 13.0855C43.7299 13.4618 43.6201 13.8774 43.6201 14.3321V21H40.7507ZM68.408 9.24H71.2774V21H68.408L68.2786 19.5418C67.9572 20.067 67.5299 20.4943 66.9968 20.8236C66.4715 21.145 65.8482 21.3058 65.127 21.3058C64.2567 21.3058 63.4414 21.1411 62.6809 20.8118C61.9204 20.4826 61.2501 20.0278 60.6699 19.4477C60.0976 18.8675 59.6468 18.1972 59.3175 17.4367C58.9961 16.6762 58.8354 15.8609 58.8354 14.9906C58.8354 14.1518 58.9882 13.3638 59.294 12.6269C59.6076 11.8899 60.0427 11.2431 60.5994 10.6865C61.156 10.1298 61.7989 9.69472 62.528 9.38112C63.2571 9.06752 64.0411 8.91072 64.88 8.91072C65.6562 8.91072 66.35 9.0832 66.9615 9.42816C67.5809 9.77312 68.1062 10.2122 68.5374 10.7453L68.408 9.24ZM65.0564 18.5422C65.6679 18.5422 66.2089 18.3893 66.6793 18.0835C67.1497 17.7778 67.5182 17.3662 67.7847 16.8487C68.0513 16.3234 68.1846 15.7472 68.1846 15.12C68.1846 14.485 68.0513 13.9087 67.7847 13.3913C67.5182 12.866 67.1458 12.4505 66.6675 12.1447C66.1971 11.839 65.6601 11.6861 65.0564 11.6861C64.4527 11.6861 63.9 11.8429 63.3982 12.1565C62.9043 12.4622 62.5084 12.8738 62.2105 13.3913C61.9204 13.9087 61.7754 14.485 61.7754 15.12C61.7754 15.755 61.9243 16.3313 62.2222 16.8487C62.5202 17.3662 62.9161 17.7778 63.41 18.0835C63.9118 18.3893 64.4606 18.5422 65.0564 18.5422ZM71.751 21L71.7392 9.24H74.6087L74.6204 10.2866C75.0203 9.86328 75.4985 9.53008 76.0551 9.28704C76.6118 9.03616 77.2115 8.91072 77.8544 8.91072C78.2856 8.91072 78.7168 8.97344 79.148 9.09888L78.0191 11.9918C77.7211 11.8742 77.4232 11.8154 77.1253 11.8154C76.6627 11.8154 76.2394 11.9291 75.8552 12.1565C75.4789 12.376 75.1771 12.6778 74.9497 13.062C74.7302 13.4383 74.6204 13.8578 74.6204 14.3203V21H71.751ZM85.2107 12.1094H82.9292V21H80.0598V12.1094H78.3193V9.24H80.0598V5.54736H82.9292V9.24H85.2107V12.1094ZM92.4708 17.4602L95.058 18.8597C94.517 19.5966 93.8389 20.1886 93.0235 20.6354C92.2082 21.0823 91.3183 21.3058 90.354 21.3058C89.2721 21.3058 88.2842 21.0274 87.3905 20.4708C86.5046 19.9142 85.795 19.1694 85.2619 18.2364C84.7366 17.2956 84.474 16.2568 84.474 15.12C84.474 14.2576 84.6269 13.454 84.9326 12.7092C85.2384 11.9566 85.6578 11.298 86.191 10.7335C86.7319 10.1612 87.3591 9.71432 88.0726 9.39288C88.786 9.07144 89.5465 8.91072 90.354 8.91072C91.3183 8.91072 92.2082 9.13416 93.0235 9.58104C93.8389 10.0279 94.517 10.6277 95.058 11.3803L92.4708 12.768C92.1964 12.4544 91.871 12.2114 91.4947 12.0389C91.1262 11.8664 90.746 11.7802 90.354 11.7802C89.7895 11.7802 89.2799 11.937 88.8252 12.2506C88.3705 12.5563 88.0098 12.964 87.7433 13.4736C87.4767 13.9754 87.3434 14.5242 87.3434 15.12C87.3434 15.708 87.4767 16.2568 87.7433 16.7664C88.0098 17.2682 88.3705 17.6719 88.8252 17.9777C89.2799 18.2834 89.7895 18.4363 90.354 18.4363C90.7617 18.4363 91.1498 18.3501 91.5182 18.1776C91.8867 17.9973 92.2042 17.7582 92.4708 17.4602ZM94.8283 9.24H97.6978V21H94.8283V9.24ZM96.2866 7.72296C95.8632 7.72296 95.5065 7.58576 95.2164 7.31136C94.9263 7.02912 94.7813 6.67632 94.7813 6.25296C94.7813 5.83744 94.9263 5.48856 95.2164 5.20632C95.5065 4.92408 95.8593 4.78296 96.2748 4.78296C96.6903 4.78296 97.0392 4.92408 97.3214 5.20632C97.6115 5.48856 97.7566 5.83744 97.7566 6.25296C97.7566 6.67632 97.6154 7.02912 97.3332 7.31136C97.051 7.58576 96.7021 7.72296 96.2866 7.72296ZM104.946 12.1094H102.665V21H99.7955V12.1094H98.055V9.24H99.7955V5.54736H102.665V9.24H104.946V12.1094ZM112.799 9.24H115.845L109.412 26.88H106.366L108.495 21L104.261 9.24H107.401L109.929 17.0722L112.799 9.24Z"/>
</mask>
<path d="M35.8804 21.2117C35.2689 21.1725 34.677 21.051 34.1046 20.8471C33.5402 20.6354 33.0384 20.3493 32.5994 19.9886C32.1603 19.628 31.8232 19.1968 31.588 18.695L34.0106 17.6602C34.1046 17.817 34.2575 17.9855 34.4692 18.1658C34.6809 18.3383 34.9318 18.4834 35.2218 18.601C35.5198 18.7186 35.8451 18.7774 36.1979 18.7774C36.4958 18.7774 36.7781 18.7382 37.0446 18.6598C37.319 18.5735 37.5386 18.4442 37.7032 18.2717C37.8757 18.0992 37.9619 17.8758 37.9619 17.6014C37.9619 17.3113 37.86 17.0878 37.6562 16.931C37.4602 16.7664 37.2093 16.6449 36.9035 16.5665C36.6056 16.4802 36.3155 16.4018 36.0333 16.3313C35.2885 16.1823 34.5946 15.951 33.9518 15.6374C33.3167 15.3238 32.8032 14.9201 32.4112 14.4262C32.027 13.9244 31.835 13.3207 31.835 12.6151C31.835 11.839 32.0388 11.1686 32.4465 10.6042C32.862 10.0397 33.399 9.60456 34.0576 9.2988C34.724 8.99304 35.4414 8.84016 36.2097 8.84016C37.1426 8.84016 37.9972 9.03616 38.7734 9.42816C39.5574 9.81232 40.1767 10.3572 40.6314 11.0628L38.3618 12.4034C38.252 12.2153 38.0991 12.0428 37.9031 11.886C37.7071 11.7214 37.4837 11.5881 37.2328 11.4862C36.9819 11.3764 36.7193 11.3137 36.4449 11.298C36.0921 11.2823 35.7706 11.3137 35.4806 11.3921C35.1905 11.4705 34.9553 11.6038 34.775 11.7919C34.6025 11.9801 34.5162 12.231 34.5162 12.5446C34.5162 12.8425 34.6338 13.0659 34.869 13.2149C35.1042 13.356 35.3865 13.4658 35.7158 13.5442C36.0529 13.6226 36.3743 13.7088 36.6801 13.8029C37.37 14.0302 38.0168 14.3086 38.6205 14.6378C39.232 14.9671 39.722 15.3709 40.0905 15.8491C40.459 16.3274 40.6354 16.8997 40.6197 17.5661C40.6197 18.3266 40.3923 18.993 39.9376 19.5653C39.4829 20.1298 38.8949 20.561 38.1736 20.8589C37.4602 21.1568 36.6958 21.2744 35.8804 21.2117ZM40.7507 21V9.24H43.6201V10.2866C44.02 9.86328 44.4982 9.53008 45.0549 9.28704C45.6115 9.03616 46.2113 8.91072 46.8541 8.91072C47.6695 8.91072 48.4182 9.1028 49.1003 9.48696C49.7902 9.87112 50.339 10.3846 50.7467 11.0275C51.1622 10.3846 51.711 9.87112 52.3931 9.48696C53.0752 9.1028 53.8239 8.91072 54.6393 8.91072C55.5017 8.91072 56.2817 9.1224 56.9795 9.54576C57.6851 9.96128 58.2457 10.5218 58.6612 11.2274C59.0845 11.9252 59.2962 12.7053 59.2962 13.5677V21H56.4268V14.3321C56.4268 13.8774 56.3131 13.4618 56.0857 13.0855C55.8662 12.7014 55.5683 12.3956 55.192 12.1682C54.8235 11.933 54.408 11.8154 53.9454 11.8154C53.4829 11.8154 53.0634 11.9291 52.6871 12.1565C52.3186 12.376 52.0207 12.6739 51.7933 13.0502C51.566 13.4266 51.4523 13.8538 51.4523 14.3321V21H48.5829V14.3321C48.5829 13.8538 48.4731 13.4266 48.2536 13.0502C48.0341 12.6739 47.7361 12.376 47.3598 12.1565C46.9835 11.9291 46.5641 11.8154 46.1015 11.8154C45.6468 11.8154 45.2313 11.933 44.8549 12.1682C44.4786 12.3956 44.1768 12.7014 43.9494 13.0855C43.7299 13.4618 43.6201 13.8774 43.6201 14.3321V21H40.7507ZM68.408 9.24H71.2774V21H68.408L68.2786 19.5418C67.9572 20.067 67.5299 20.4943 66.9968 20.8236C66.4715 21.145 65.8482 21.3058 65.127 21.3058C64.2567 21.3058 63.4414 21.1411 62.6809 20.8118C61.9204 20.4826 61.2501 20.0278 60.6699 19.4477C60.0976 18.8675 59.6468 18.1972 59.3175 17.4367C58.9961 16.6762 58.8354 15.8609 58.8354 14.9906C58.8354 14.1518 58.9882 13.3638 59.294 12.6269C59.6076 11.8899 60.0427 11.2431 60.5994 10.6865C61.156 10.1298 61.7989 9.69472 62.528 9.38112C63.2571 9.06752 64.0411 8.91072 64.88 8.91072C65.6562 8.91072 66.35 9.0832 66.9615 9.42816C67.5809 9.77312 68.1062 10.2122 68.5374 10.7453L68.408 9.24ZM65.0564 18.5422C65.6679 18.5422 66.2089 18.3893 66.6793 18.0835C67.1497 17.7778 67.5182 17.3662 67.7847 16.8487C68.0513 16.3234 68.1846 15.7472 68.1846 15.12C68.1846 14.485 68.0513 13.9087 67.7847 13.3913C67.5182 12.866 67.1458 12.4505 66.6675 12.1447C66.1971 11.839 65.6601 11.6861 65.0564 11.6861C64.4527 11.6861 63.9 11.8429 63.3982 12.1565C62.9043 12.4622 62.5084 12.8738 62.2105 13.3913C61.9204 13.9087 61.7754 14.485 61.7754 15.12C61.7754 15.755 61.9243 16.3313 62.2222 16.8487C62.5202 17.3662 62.9161 17.7778 63.41 18.0835C63.9118 18.3893 64.4606 18.5422 65.0564 18.5422ZM71.751 21L71.7392 9.24H74.6087L74.6204 10.2866C75.0203 9.86328 75.4985 9.53008 76.0551 9.28704C76.6118 9.03616 77.2115 8.91072 77.8544 8.91072C78.2856 8.91072 78.7168 8.97344 79.148 9.09888L78.0191 11.9918C77.7211 11.8742 77.4232 11.8154 77.1253 11.8154C76.6627 11.8154 76.2394 11.9291 75.8552 12.1565C75.4789 12.376 75.1771 12.6778 74.9497 13.062C74.7302 13.4383 74.6204 13.8578 74.6204 14.3203V21H71.751ZM85.2107 12.1094H82.9292V21H80.0598V12.1094H78.3193V9.24H80.0598V5.54736H82.9292V9.24H85.2107V12.1094ZM92.4708 17.4602L95.058 18.8597C94.517 19.5966 93.8389 20.1886 93.0235 20.6354C92.2082 21.0823 91.3183 21.3058 90.354 21.3058C89.2721 21.3058 88.2842 21.0274 87.3905 20.4708C86.5046 19.9142 85.795 19.1694 85.2619 18.2364C84.7366 17.2956 84.474 16.2568 84.474 15.12C84.474 14.2576 84.6269 13.454 84.9326 12.7092C85.2384 11.9566 85.6578 11.298 86.191 10.7335C86.7319 10.1612 87.3591 9.71432 88.0726 9.39288C88.786 9.07144 89.5465 8.91072 90.354 8.91072C91.3183 8.91072 92.2082 9.13416 93.0235 9.58104C93.8389 10.0279 94.517 10.6277 95.058 11.3803L92.4708 12.768C92.1964 12.4544 91.871 12.2114 91.4947 12.0389C91.1262 11.8664 90.746 11.7802 90.354 11.7802C89.7895 11.7802 89.2799 11.937 88.8252 12.2506C88.3705 12.5563 88.0098 12.964 87.7433 13.4736C87.4767 13.9754 87.3434 14.5242 87.3434 15.12C87.3434 15.708 87.4767 16.2568 87.7433 16.7664C88.0098 17.2682 88.3705 17.6719 88.8252 17.9777C89.2799 18.2834 89.7895 18.4363 90.354 18.4363C90.7617 18.4363 91.1498 18.3501 91.5182 18.1776C91.8867 17.9973 92.2042 17.7582 92.4708 17.4602ZM94.8283 9.24H97.6978V21H94.8283V9.24ZM96.2866 7.72296C95.8632 7.72296 95.5065 7.58576 95.2164 7.31136C94.9263 7.02912 94.7813 6.67632 94.7813 6.25296C94.7813 5.83744 94.9263 5.48856 95.2164 5.20632C95.5065 4.92408 95.8593 4.78296 96.2748 4.78296C96.6903 4.78296 97.0392 4.92408 97.3214 5.20632C97.6115 5.48856 97.7566 5.83744 97.7566 6.25296C97.7566 6.67632 97.6154 7.02912 97.3332 7.31136C97.051 7.58576 96.7021 7.72296 96.2866 7.72296ZM104.946 12.1094H102.665V21H99.7955V12.1094H98.055V9.24H99.7955V5.54736H102.665V9.24H104.946V12.1094ZM112.799 9.24H115.845L109.412 26.88H106.366L108.495 21L104.261 9.24H107.401L109.929 17.0722L112.799 9.24Z" fill="#F5F5F5"/>
<path d="M35.8804 21.2117L35.9034 20.9125L35.8996 20.9123L35.8804 21.2117ZM34.1046 20.8471L33.9993 21.1281L34.004 21.1297L34.1046 20.8471ZM32.5994 19.9886L32.7898 19.7568L32.7898 19.7568L32.5994 19.9886ZM31.588 18.695L31.4701 18.4192L31.1845 18.5412L31.3164 18.8224L31.588 18.695ZM34.0106 17.6602L34.2678 17.5058L34.1332 17.2815L33.8927 17.3843L34.0106 17.6602ZM34.4692 18.1658L34.2746 18.3943L34.2797 18.3984L34.4692 18.1658ZM35.2218 18.601L35.1091 18.879L35.1117 18.88L35.2218 18.601ZM37.0446 18.6598L37.1293 18.9476L37.1346 18.946L37.0446 18.6598ZM37.7032 18.2717L37.491 18.0595L37.4862 18.0645L37.7032 18.2717ZM37.6562 16.931L37.463 17.161L37.4732 17.1688L37.6562 16.931ZM36.9035 16.5665L36.8201 16.8548L36.829 16.8571L36.9035 16.5665ZM36.0333 16.3313L36.106 16.0402L36.0991 16.0385L36.0921 16.0371L36.0333 16.3313ZM33.9518 15.6374L33.8189 15.9064L33.8202 15.9071L33.9518 15.6374ZM32.4112 14.4262L32.173 14.6086L32.1762 14.6127L32.4112 14.4262ZM32.4465 10.6042L32.2049 10.4263L32.2033 10.4285L32.4465 10.6042ZM34.0576 9.2988L33.9325 9.02613L33.9313 9.0267L34.0576 9.2988ZM38.7734 9.42816L38.6381 9.69596L38.6414 9.69756L38.7734 9.42816ZM40.6314 11.0628L40.784 11.3211L41.0526 11.1625L40.8836 10.9003L40.6314 11.0628ZM38.3618 12.4034L38.1026 12.5546L38.2546 12.8152L38.5143 12.6617L38.3618 12.4034ZM37.9031 11.886L37.7101 12.1158L37.7157 12.1203L37.9031 11.886ZM37.2328 11.4862L37.1125 11.7611L37.1199 11.7641L37.2328 11.4862ZM36.4449 11.298L36.462 10.9985L36.4582 10.9983L36.4449 11.298ZM34.775 11.7919L34.5583 11.5843L34.5538 11.5892L34.775 11.7919ZM34.869 13.2149L34.7085 13.4684L34.7147 13.4721L34.869 13.2149ZM35.7158 13.5442L35.6463 13.836L35.6478 13.8364L35.7158 13.5442ZM36.6801 13.8029L36.774 13.5179L36.7683 13.5161L36.6801 13.8029ZM38.6205 14.6378L38.4768 14.9012L38.4783 14.902L38.6205 14.6378ZM40.0905 15.8491L40.3281 15.666L40.3281 15.666L40.0905 15.8491ZM40.6197 17.5661L40.3197 17.559V17.5661H40.6197ZM39.9376 19.5653L40.1712 19.7535L40.1725 19.7519L39.9376 19.5653ZM38.1736 20.8589L38.0591 20.5816L38.058 20.582L38.1736 20.8589ZM35.8996 20.9123C35.3156 20.8749 34.7511 20.7589 34.2053 20.5645L34.004 21.1297C34.6028 21.343 35.2221 21.4701 35.8612 21.5111L35.8996 20.9123ZM34.21 20.5662C33.6745 20.3654 33.2018 20.0953 32.7898 19.7568L32.4089 20.2205C32.875 20.6033 33.4059 20.9055 33.9993 21.128L34.21 20.5662ZM32.7898 19.7568C32.3844 19.4238 32.0754 19.028 31.8596 18.5677L31.3164 18.8224C31.571 19.3656 31.9363 19.8322 32.4089 20.2205L32.7898 19.7568ZM31.7059 18.9709L34.1284 17.936L33.8927 17.3843L31.4701 18.4192L31.7059 18.9709ZM33.7533 17.8145C33.8705 18.0098 34.0497 18.2026 34.2747 18.3942L34.6637 17.9375C34.4653 17.7684 34.3388 17.6242 34.2678 17.5058L33.7533 17.8145ZM34.2797 18.3984C34.5177 18.5923 34.7953 18.7518 35.1091 18.879L35.3346 18.3229C35.0682 18.215 34.8441 18.0843 34.6587 17.9333L34.2797 18.3984ZM35.1117 18.88C35.4481 19.0128 35.8112 19.0774 36.1979 19.0774V18.4774C35.879 18.4774 35.5914 18.4243 35.332 18.3219L35.1117 18.88ZM36.1979 19.0774C36.5224 19.0774 36.8333 19.0346 37.1293 18.9476L36.96 18.372C36.7228 18.4417 36.4693 18.4774 36.1979 18.4774V19.0774ZM37.1346 18.946C37.4474 18.8476 37.714 18.6948 37.9202 18.4788L37.4862 18.0645C37.3631 18.1935 37.1907 18.2994 36.9547 18.3736L37.1346 18.946ZM37.9153 18.4838C38.1513 18.2478 38.2619 17.9445 38.2619 17.6014H37.6619C37.6619 17.807 37.6001 17.9506 37.4911 18.0595L37.9153 18.4838ZM38.2619 17.6014C38.2619 17.2317 38.1269 16.9146 37.8391 16.6933L37.4732 17.1688C37.5931 17.261 37.6619 17.3908 37.6619 17.6014H38.2619ZM37.8491 16.7013C37.6116 16.5018 37.3174 16.3629 36.978 16.2759L36.829 16.8571C37.1012 16.9269 37.3087 17.031 37.4632 17.1608L37.8491 16.7013ZM36.9869 16.2783C36.6857 16.1911 36.3921 16.1117 36.106 16.0402L35.9605 16.6223C36.239 16.6919 36.5255 16.7694 36.8201 16.8546L36.9869 16.2783ZM36.0921 16.0371C35.3709 15.8929 34.7017 15.6695 34.0833 15.3678L33.8202 15.9071C34.4876 16.2326 35.206 16.4718 35.9744 16.6255L36.0921 16.0371ZM34.0846 15.3685C33.4844 15.072 33.0074 14.6948 32.6462 14.2397L32.1762 14.6127C32.599 15.1453 33.1491 15.5756 33.8189 15.9064L34.0846 15.3685ZM32.6494 14.2438C32.31 13.8005 32.135 13.2629 32.135 12.6151H31.535C31.535 13.3786 31.7441 14.0483 32.173 14.6085L32.6494 14.2438ZM32.135 12.6151C32.135 11.8945 32.3231 11.2873 32.6897 10.7798L32.2033 10.4285C31.7545 11.0499 31.535 11.7835 31.535 12.6151H32.135ZM32.6881 10.782C33.0726 10.2596 33.5694 9.85622 34.1839 9.5709L33.9313 9.0267C33.2287 9.3529 32.6514 9.81974 32.2049 10.4263L32.6881 10.782ZM34.1827 9.57147C34.808 9.28458 35.4824 9.14016 36.2097 9.14016V8.54016C35.4003 8.54016 34.64 8.7015 33.9325 9.02613L34.1827 9.57147ZM36.2097 9.14016C37.0992 9.14016 37.9069 9.32665 38.6381 9.69594L38.9086 9.16037C38.0875 8.74567 37.1861 8.54016 36.2097 8.54016V9.14016ZM38.6414 9.69756C39.3784 10.0587 39.9553 10.5675 40.3793 11.2253L40.8836 10.9003C40.3981 10.1469 39.7363 9.56594 38.9054 9.15876L38.6414 9.69756ZM40.4789 10.8045L38.2092 12.1451L38.5143 12.6617L40.784 11.3211L40.4789 10.8045ZM38.6209 12.2523C38.4899 12.0278 38.311 11.8281 38.0905 11.6517L37.7157 12.1203C37.8872 12.2575 38.0141 12.4028 38.1026 12.5546L38.6209 12.2523ZM38.0961 11.6563C37.8747 11.4704 37.6239 11.3212 37.3457 11.2082L37.1199 11.7641C37.3434 11.8549 37.5395 11.9724 37.7102 12.1157L38.0961 11.6563ZM37.353 11.2113C37.0694 11.0872 36.7718 11.0162 36.462 10.9985L36.4278 11.5975C36.6667 11.6112 36.8944 11.6656 37.1126 11.761L37.353 11.2113ZM36.4582 10.9983C36.0798 10.9815 35.7269 11.0147 35.4023 11.1025L35.5588 11.6817C35.8144 11.6126 36.1044 11.5832 36.4316 11.5977L36.4582 10.9983ZM35.4023 11.1025C35.0677 11.1929 34.7819 11.351 34.5584 11.5843L34.9916 11.9995C35.1286 11.8565 35.3133 11.7481 35.5588 11.6817L35.4023 11.1025ZM34.5538 11.5892C34.3196 11.8447 34.2162 12.1739 34.2162 12.5446H34.8162C34.8162 12.288 34.8853 12.1155 34.9961 11.9946L34.5538 11.5892ZM34.2162 12.5446C34.2162 12.9366 34.3794 13.2599 34.7085 13.4683L35.0296 12.9614C34.8883 12.872 34.8162 12.7483 34.8162 12.5446H34.2162ZM34.7147 13.4721C34.9816 13.6323 35.2938 13.7521 35.6463 13.836L35.7852 13.2523C35.4792 13.1794 35.2269 13.0797 35.0234 12.9576L34.7147 13.4721ZM35.6478 13.8364C35.9787 13.9133 36.2933 13.9978 36.5919 14.0896L36.7683 13.5161C36.4553 13.4198 36.1271 13.3318 35.7837 13.252L35.6478 13.8364ZM36.5862 14.0878C37.2599 14.3098 37.8899 14.5811 38.4768 14.9012L38.7641 14.3745C38.1437 14.036 37.4801 13.7507 36.774 13.518L36.5862 14.0878ZM38.4783 14.902C39.0582 15.2143 39.5137 15.5921 39.8528 16.0322L40.3281 15.666C39.9303 15.1497 39.4058 14.72 38.7627 14.3737L38.4783 14.902ZM39.8528 16.0322C40.175 16.4503 40.334 16.9537 40.3198 17.559L40.9196 17.5731C40.9367 16.8457 40.7429 16.2044 40.3281 15.666L39.8528 16.0322ZM40.3197 17.5661C40.3197 18.2617 40.1135 18.8617 39.7027 19.3787L40.1725 19.7519C40.6712 19.1242 40.9197 18.3914 40.9197 17.5661H40.3197ZM39.704 19.3771C39.2832 19.8994 38.7375 20.3014 38.0591 20.5816L38.2881 21.1362C39.0523 20.8205 39.6825 20.3602 40.1712 19.7535L39.704 19.3771ZM38.058 20.582C37.3909 20.8606 36.6743 20.9719 35.9034 20.9126L35.8574 21.5108C36.7173 21.5769 37.5294 21.453 38.2892 21.1357L38.058 20.582ZM40.7507 21H40.4507V21.3H40.7507V21ZM40.7507 9.24V8.94H40.4507V9.24H40.7507ZM43.6201 9.24H43.9201V8.94H43.6201V9.24ZM43.6201 10.2866H43.3201V11.0412L43.8382 10.4926L43.6201 10.2866ZM45.0549 9.28704L45.1749 9.56199L45.1781 9.56054L45.0549 9.28704ZM49.1003 9.48696L48.9531 9.74835L48.9543 9.74907L49.1003 9.48696ZM50.7467 11.0275L50.4933 11.1882L50.7443 11.5839L50.9986 11.1904L50.7467 11.0275ZM56.9795 9.54576L56.8239 9.80226L56.8273 9.80427L56.9795 9.54576ZM58.6612 11.2274L58.4026 11.3797L58.4047 11.3831L58.6612 11.2274ZM59.2962 21V21.3H59.5962V21H59.2962ZM56.4268 21H56.1268V21.3H56.4268V21ZM56.0857 13.0855L55.8252 13.2344L55.829 13.2407L56.0857 13.0855ZM55.192 12.1682L55.0305 12.4212L55.0368 12.425L55.192 12.1682ZM52.6871 12.1565L52.8406 12.4142L52.8422 12.4133L52.6871 12.1565ZM51.7933 13.0502L51.5366 12.8951L51.5366 12.8951L51.7933 13.0502ZM51.4523 21V21.3H51.7523V21H51.4523ZM48.5829 21H48.2829V21.3H48.5829V21ZM48.2536 13.0502L48.5127 12.8991L48.5127 12.8991L48.2536 13.0502ZM47.3598 12.1565L47.2047 12.4133L47.2087 12.4156L47.3598 12.1565ZM44.8549 12.1682L45.0101 12.425L45.0139 12.4226L44.8549 12.1682ZM43.9494 13.0855L43.6912 12.9327L43.6903 12.9344L43.9494 13.0855ZM43.6201 21V21.3H43.9201V21H43.6201ZM41.0507 21V9.24H40.4507V21H41.0507ZM40.7507 9.54H43.6201V8.94H40.7507V9.54ZM43.3201 9.24V10.2866H43.9201V9.24H43.3201ZM43.8382 10.4926C44.2092 10.0999 44.6536 9.78957 45.1749 9.56198L44.9348 9.0121C44.3428 9.27059 43.8308 9.62668 43.402 10.0807L43.8382 10.4926ZM45.1781 9.56054C45.694 9.32805 46.2515 9.21072 46.8541 9.21072V8.61072C46.171 8.61072 45.529 8.74427 44.9316 9.01353L45.1781 9.56054ZM46.8541 9.21072C47.6201 9.21072 48.3178 9.39057 48.9531 9.74835L49.2475 9.22557C48.5186 8.81502 47.7188 8.61072 46.8541 8.61072V9.21072ZM48.9543 9.74907C49.6023 10.1098 50.1135 10.5891 50.4933 11.1882L51 10.8669C50.5646 10.1801 49.9782 9.6324 49.2462 9.22485L48.9543 9.74907ZM50.9986 11.1904C51.3871 10.5893 51.8996 10.1092 52.5403 9.74835L52.2459 9.22557C51.5224 9.63304 50.9373 10.18 50.4947 10.8647L50.9986 11.1904ZM52.5403 9.74835C53.1756 9.39057 53.8732 9.21072 54.6393 9.21072V8.61072C53.7745 8.61072 52.9748 8.81502 52.2459 9.22557L52.5403 9.74835ZM54.6393 9.21072C55.45 9.21072 56.1757 9.40898 56.8239 9.80224L57.1351 9.28928C56.3877 8.83581 55.5533 8.61072 54.6393 8.61072V9.21072ZM56.8273 9.80427C57.489 10.194 58.013 10.7179 58.4027 11.3797L58.9197 11.0752C58.4783 10.3257 57.8812 9.72861 57.1317 9.28725L56.8273 9.80427ZM58.4047 11.3831C58.7979 12.0312 58.9962 12.7569 58.9962 13.5677H59.5962C59.5962 12.6536 59.3711 11.8192 58.9177 11.0718L58.4047 11.3831ZM58.9962 13.5677V21H59.5962V13.5677H58.9962ZM59.2962 20.7H56.4268V21.3H59.2962V20.7ZM56.7268 21V14.3321H56.1268V21H56.7268ZM56.7268 14.3321C56.7268 13.8246 56.5991 13.3552 56.3425 12.9304L55.829 13.2407C56.027 13.5685 56.1268 13.9301 56.1268 14.3321H56.7268ZM56.3462 12.9367C56.1015 12.5085 55.7674 12.1654 55.3471 11.9115L55.0368 12.425C55.3691 12.6258 55.6309 12.8943 55.8253 13.2344L56.3462 12.9367ZM55.3534 11.9154C54.9338 11.6476 54.4617 11.5154 53.9454 11.5154V12.1154C54.3543 12.1154 54.7132 12.2185 55.0306 12.4211L55.3534 11.9154ZM53.9454 11.5154C53.4311 11.5154 52.9576 11.6426 52.532 11.8997L52.8422 12.4133C53.1693 12.2157 53.5346 12.1154 53.9454 12.1154V11.5154ZM52.5336 11.8987C52.1217 12.1441 51.7887 12.4777 51.5366 12.8951L52.0501 13.2054C52.2527 12.8701 52.5156 12.6079 52.8406 12.4142L52.5336 11.8987ZM51.5366 12.8951C51.2785 13.3223 51.1523 13.8041 51.1523 14.3321H51.7523C51.7523 13.9036 51.8535 13.5308 52.0501 13.2054L51.5366 12.8951ZM51.1523 14.3321V21H51.7523V14.3321H51.1523ZM51.4523 20.7H48.5829V21.3H51.4523V20.7ZM48.8829 21V14.3321H48.2829V21H48.8829ZM48.8829 14.3321C48.8829 13.8061 48.7616 13.3257 48.5127 12.8991L47.9944 13.2014C48.1846 13.5274 48.2829 13.9016 48.2829 14.3321H48.8829ZM48.5127 12.8991C48.2671 12.4781 47.932 12.1429 47.511 11.8973L47.2087 12.4156C47.5403 12.6091 47.801 12.8698 47.9944 13.2014L48.5127 12.8991ZM47.5149 11.8997C47.0893 11.6426 46.6158 11.5154 46.1015 11.5154V12.1154C46.5123 12.1154 46.8776 12.2157 47.2047 12.4133L47.5149 11.8997ZM46.1015 11.5154C45.592 11.5154 45.1212 11.6481 44.6959 11.9138L45.0139 12.4226C45.3413 12.218 45.7015 12.1154 46.1015 12.1154V11.5154ZM44.6998 11.9115C44.2804 12.1649 43.9434 12.5066 43.6912 12.9327L44.2076 13.2383C44.4101 12.8961 44.6768 12.6263 45.0101 12.425L44.6998 11.9115ZM43.6903 12.9344C43.4428 13.3586 43.3201 13.8267 43.3201 14.3321H43.9201C43.9201 13.9281 44.017 13.5651 44.2085 13.2367L43.6903 12.9344ZM43.3201 14.3321V21H43.9201V14.3321H43.3201ZM43.6201 20.7H40.7507V21.3H43.6201V20.7ZM68.408 9.24V8.94H68.0811L68.1091 9.26569L68.408 9.24ZM71.2774 9.24H71.5774V8.94H71.2774V9.24ZM71.2774 21V21.3H71.5774V21H71.2774ZM68.408 21L68.1092 21.0265L68.1334 21.3H68.408V21ZM68.2786 19.5418L68.5775 19.5153L68.4972 18.6099L68.0228 19.3852L68.2786 19.5418ZM66.9968 20.8236L67.1534 21.0795L67.1545 21.0788L66.9968 20.8236ZM60.6699 19.4477L60.4564 19.6584L60.4578 19.6598L60.6699 19.4477ZM59.3175 17.4367L59.0412 17.5535L59.0422 17.5559L59.3175 17.4367ZM59.294 12.6269L59.018 12.5094L59.0169 12.5119L59.294 12.6269ZM60.5994 10.6865L60.8115 10.8986L60.8115 10.8986L60.5994 10.6865ZM66.9615 9.42816L66.8141 9.68946L66.8156 9.69025L66.9615 9.42816ZM68.5374 10.7453L68.3041 10.9339L68.9201 11.6956L68.8363 10.7196L68.5374 10.7453ZM66.6793 18.0835L66.5158 17.832L66.5158 17.832L66.6793 18.0835ZM67.7847 16.8487L68.0514 16.9861L68.0523 16.9845L67.7847 16.8487ZM67.7847 13.3913L67.5172 13.527L67.518 13.5287L67.7847 13.3913ZM66.6675 12.1447L66.504 12.3963L66.5059 12.3975L66.6675 12.1447ZM63.3982 12.1565L63.5562 12.4116L63.5572 12.4109L63.3982 12.1565ZM62.2105 13.3913L61.9505 13.2416L61.9488 13.2446L62.2105 13.3913ZM62.2222 16.8487L62.4822 16.699L62.4822 16.699L62.2222 16.8487ZM63.41 18.0835L63.2521 18.3386L63.2539 18.3397L63.41 18.0835ZM68.408 9.54H71.2774V8.94H68.408V9.54ZM70.9774 9.24V21H71.5774V9.24H70.9774ZM71.2774 20.7H68.408V21.3H71.2774V20.7ZM68.7068 20.9735L68.5775 19.5153L67.9798 19.5683L68.1092 21.0265L68.7068 20.9735ZM68.0228 19.3852C67.7263 19.8696 67.333 20.2634 66.8392 20.5684L67.1545 21.0788C67.7269 20.7253 68.1881 20.2645 68.5345 19.6983L68.0228 19.3852ZM66.8402 20.5677C66.3696 20.8557 65.8026 21.0058 65.127 21.0058V21.6058C65.8939 21.6058 66.5734 21.4344 67.1534 21.0795L66.8402 20.5677ZM65.127 21.0058C64.2956 21.0058 63.5211 20.8487 62.8001 20.5365L62.5617 21.0871C63.3617 21.4335 64.2178 21.6058 65.127 21.6058V21.0058ZM62.8001 20.5365C62.0739 20.2221 61.4352 19.7887 60.8821 19.2355L60.4578 19.6598C61.065 20.267 61.7669 20.743 62.5617 21.0871L62.8001 20.5365ZM60.8835 19.237C60.3377 18.6837 59.9076 18.0445 59.5928 17.3175L59.0422 17.5559C59.386 18.3499 59.8575 19.0513 60.4564 19.6584L60.8835 19.237ZM59.5939 17.3199C59.2889 16.5984 59.1354 15.823 59.1354 14.9906H58.5354C58.5354 15.8988 58.7033 16.7541 59.0412 17.5535L59.5939 17.3199ZM59.1354 14.9906C59.1354 14.1892 59.2812 13.4405 59.5711 12.7418L59.0169 12.5119C58.6953 13.2872 58.5354 14.1144 58.5354 14.9906H59.1354ZM59.5701 12.7443C59.8689 12.0421 60.2825 11.4276 60.8115 10.8986L60.3872 10.4743C59.8029 11.0586 59.3463 11.7377 59.018 12.5094L59.5701 12.7443ZM60.8115 10.8986C61.341 10.3691 61.9521 9.95541 62.6465 9.65671L62.4095 9.10553C61.6457 9.43403 60.971 9.89059 60.3872 10.4743L60.8115 10.8986ZM62.6465 9.65671C63.3361 9.36012 64.0795 9.21072 64.88 9.21072V8.61072C64.0027 8.61072 63.1781 8.77492 62.4095 9.10553L62.6465 9.65671ZM64.88 9.21072C65.6101 9.21072 66.2522 9.37247 66.8141 9.68945L67.1089 9.16687C66.4478 8.79393 65.7022 8.61072 64.88 8.61072V9.21072ZM66.8156 9.69025C67.4026 10.0172 67.8979 10.4317 68.3041 10.9339L68.7706 10.5566C68.3145 9.99265 67.7592 9.52905 67.1075 9.16607L66.8156 9.69025ZM68.8363 10.7196L68.7069 9.21431L68.1091 9.26569L68.2385 10.771L68.8363 10.7196ZM65.0564 18.8422C65.7205 18.8422 66.3194 18.6753 66.8428 18.3351L66.5158 17.832C66.0984 18.1033 65.6153 18.2422 65.0564 18.2422V18.8422ZM66.8428 18.3351C67.3586 17.9998 67.7619 17.5481 68.0514 16.9861L67.518 16.7113C67.2744 17.1842 66.9408 17.5557 66.5158 17.832L66.8428 18.3351ZM68.0523 16.9845C68.3415 16.4144 68.4846 15.7912 68.4846 15.12H67.8846C67.8846 15.7032 67.761 16.2325 67.5172 16.713L68.0523 16.9845ZM68.4846 15.12C68.4846 14.4416 68.3418 13.8176 68.0514 13.2539L67.518 13.5287C67.7608 13.9998 67.8846 14.5283 67.8846 15.12H68.4846ZM68.0523 13.2555C67.7624 12.6844 67.3542 12.2277 66.8291 11.892L66.5059 12.3975C66.9373 12.6733 67.2739 13.0476 67.5172 13.527L68.0523 13.2555ZM66.831 11.8932C66.3082 11.5534 65.7135 11.3861 65.0564 11.3861V11.9861C65.6067 11.9861 66.086 12.1245 66.504 12.3963L66.831 11.8932ZM65.0564 11.3861C64.3977 11.3861 63.7897 11.558 63.2392 11.9021L63.5572 12.4109C64.0103 12.1277 64.5078 11.9861 65.0564 11.9861V11.3861ZM63.2403 11.9014C62.703 12.234 62.2725 12.6824 61.9505 13.2416L62.4705 13.541C62.7443 13.0653 63.1057 12.6904 63.5562 12.4116L63.2403 11.9014ZM61.9488 13.2446C61.6318 13.81 61.4754 14.4373 61.4754 15.12H62.0754C62.0754 14.5326 62.209 14.0075 62.4722 13.538L61.9488 13.2446ZM61.4754 15.12C61.4754 15.8041 61.6365 16.4325 61.9623 16.9984L62.4822 16.699C62.2122 16.23 62.0754 15.706 62.0754 15.12H61.4754ZM61.9623 16.9984C62.2842 17.5576 62.7148 18.006 63.2521 18.3386L63.5679 17.8284C63.1174 17.5496 62.7561 17.1747 62.4822 16.699L61.9623 16.9984ZM63.2539 18.3397C63.8034 18.6745 64.4063 18.8422 65.0564 18.8422V18.2422C64.5148 18.2422 64.0202 18.104 63.5661 17.8273L63.2539 18.3397ZM71.751 21L71.451 21.0003L71.4513 21.3H71.751V21ZM71.7392 9.24V8.94H71.4389L71.4392 9.2403L71.7392 9.24ZM74.6087 9.24L74.9086 9.23663L74.9053 8.94H74.6087V9.24ZM74.6204 10.2866L74.3204 10.29L74.3288 11.0324L74.8385 10.4926L74.6204 10.2866ZM76.0551 9.28704L76.1752 9.56199L76.1784 9.56054L76.0551 9.28704ZM79.148 9.09888L79.4275 9.20794L79.5467 8.90243L79.2318 8.81082L79.148 9.09888ZM78.0191 11.9918L77.9089 12.2709L78.189 12.3815L78.2985 12.1009L78.0191 11.9918ZM75.8552 12.1565L76.0064 12.4156L76.008 12.4147L75.8552 12.1565ZM74.9497 13.062L74.6915 12.9092L74.6906 12.9108L74.9497 13.062ZM74.6204 21V21.3H74.9204V21H74.6204ZM72.051 20.9997L72.0392 9.2397L71.4392 9.2403L71.451 21.0003L72.051 20.9997ZM71.7392 9.54H74.6087V8.94H71.7392V9.54ZM74.3087 9.24337L74.3204 10.29L74.9204 10.2833L74.9086 9.23663L74.3087 9.24337ZM74.8385 10.4926C75.2095 10.0999 75.6539 9.78957 76.1752 9.56198L75.9351 9.0121C75.3431 9.27059 74.8311 9.62668 74.4023 10.0807L74.8385 10.4926ZM76.1784 9.56054C76.6943 9.32805 77.2517 9.21072 77.8544 9.21072V8.61072C77.1713 8.61072 76.5293 8.74427 75.9319 9.01353L76.1784 9.56054ZM77.8544 9.21072C78.2561 9.21072 78.6591 9.26909 79.0642 9.38694L79.2318 8.81082C78.7745 8.67779 78.3151 8.61072 77.8544 8.61072V9.21072ZM78.8685 8.98982L77.7396 11.8828L78.2985 12.1009L79.4275 9.20794L78.8685 8.98982ZM78.1292 11.7128C77.7989 11.5824 77.4637 11.5154 77.1253 11.5154V12.1154C77.3828 12.1154 77.6434 12.1661 77.9089 12.2709L78.1292 11.7128ZM77.1253 11.5154C76.611 11.5154 76.1346 11.6425 75.7024 11.8983L76.008 12.4147C76.3442 12.2157 76.7145 12.1154 77.1253 12.1154V11.5154ZM75.7041 11.8973C75.2825 12.1433 74.9442 12.4822 74.6915 12.9092L75.2079 13.2148C75.4099 12.8735 75.6753 12.6087 76.0064 12.4156L75.7041 11.8973ZM74.6906 12.9108C74.4426 13.3359 74.3204 13.808 74.3204 14.3203H74.9204C74.9204 13.9075 75.0177 13.5407 75.2088 13.2132L74.6906 12.9108ZM74.3204 14.3203V21H74.9204V14.3203H74.3204ZM74.6204 20.7H71.751V21.3H74.6204V20.7ZM85.2107 12.1094V12.4094H85.5107V12.1094H85.2107ZM82.9292 12.1094V11.8094H82.6292V12.1094H82.9292ZM82.9292 21V21.3H83.2292V21H82.9292ZM80.0598 21H79.7598V21.3H80.0598V21ZM80.0598 12.1094H80.3598V11.8094H80.0598V12.1094ZM78.3193 12.1094H78.0193V12.4094H78.3193V12.1094ZM78.3193 9.24V8.94H78.0193V9.24H78.3193ZM80.0598 9.24V9.54H80.3598V9.24H80.0598ZM80.0598 5.54736V5.24736H79.7598V5.54736H80.0598ZM82.9292 5.54736H83.2292V5.24736H82.9292V5.54736ZM82.9292 9.24H82.6292V9.54H82.9292V9.24ZM85.2107 9.24H85.5107V8.94H85.2107V9.24ZM85.2107 11.8094H82.9292V12.4094H85.2107V11.8094ZM82.6292 12.1094V21H83.2292V12.1094H82.6292ZM82.9292 20.7H80.0598V21.3H82.9292V20.7ZM80.3598 21V12.1094H79.7598V21H80.3598ZM80.0598 11.8094H78.3193V12.4094H80.0598V11.8094ZM78.6193 12.1094V9.24H78.0193V12.1094H78.6193ZM78.3193 9.54H80.0598V8.94H78.3193V9.54ZM80.3598 9.24V5.54736H79.7598V9.24H80.3598ZM80.0598 5.84736H82.9292V5.24736H80.0598V5.84736ZM82.6292 5.54736V9.24H83.2292V5.54736H82.6292ZM82.9292 9.54H85.2107V8.94H82.9292V9.54ZM84.9107 9.24V12.1094H85.5107V9.24H84.9107ZM92.4708 17.4602L92.6135 17.1964L92.4052 17.0837L92.2472 17.2602L92.4708 17.4602ZM95.058 18.8597L95.2998 19.0372L95.5036 18.7596L95.2007 18.5958L95.058 18.8597ZM93.0235 20.6354L93.1677 20.8985L93.1677 20.8985L93.0235 20.6354ZM87.3905 20.4708L87.2309 20.7248L87.2319 20.7255L87.3905 20.4708ZM85.2619 18.2364L85 18.3827L85.0015 18.3852L85.2619 18.2364ZM84.9326 12.7092L85.2102 12.8231L85.2106 12.8221L84.9326 12.7092ZM86.191 10.7335L85.9729 10.5274L85.9729 10.5275L86.191 10.7335ZM88.0726 9.39288L87.9493 9.11936L87.9493 9.11936L88.0726 9.39288ZM93.0235 9.58104L93.1677 9.31796L93.1677 9.31796L93.0235 9.58104ZM95.058 11.3803L95.1998 11.6447L95.5013 11.483L95.3016 11.2052L95.058 11.3803ZM92.4708 12.768L92.245 12.9656L92.4022 13.1452L92.6126 13.0324L92.4708 12.768ZM91.4947 12.0389L91.3675 12.3106L91.3697 12.3116L91.4947 12.0389ZM88.8252 12.2506L88.9926 12.4995L88.9955 12.4975L88.8252 12.2506ZM87.7433 13.4736L88.0082 13.6143L88.0091 13.6126L87.7433 13.4736ZM87.7433 16.7664L87.4775 16.9055L87.4784 16.9071L87.7433 16.7664ZM88.8252 17.9777L88.6578 18.2266L88.6578 18.2266L88.8252 17.9777ZM91.5182 18.1776L91.6454 18.4493L91.6501 18.4471L91.5182 18.1776ZM92.3281 17.7241L94.9153 19.1236L95.2007 18.5958L92.6135 17.1964L92.3281 17.7241ZM94.8162 18.6822C94.3016 19.3832 93.657 19.9462 92.8793 20.3724L93.1677 20.8985C94.0208 20.431 94.7325 19.8101 95.2998 19.0372L94.8162 18.6822ZM92.8793 20.3724C92.1099 20.7941 91.2699 21.0058 90.354 21.0058V21.6058C91.3668 21.6058 92.3065 21.3705 93.1677 20.8985L92.8793 20.3724ZM90.354 21.0058C89.3265 21.0058 88.3939 20.7423 87.5491 20.2161L87.2319 20.7255C88.1746 21.3126 89.2176 21.6058 90.354 21.6058V21.0058ZM87.5501 20.2168C86.7071 19.6871 86.0317 18.9789 85.5224 18.0876L85.0015 18.3852C85.5584 19.3598 86.302 20.1412 87.2309 20.7248L87.5501 20.2168ZM85.5239 18.0902C85.0249 17.1965 84.774 16.2085 84.774 15.12H84.174C84.174 16.3051 84.4484 17.3947 85 18.3826L85.5239 18.0902ZM84.774 15.12C84.774 14.2939 84.9203 13.5293 85.2102 12.8231L84.6551 12.5953C84.3335 13.3787 84.174 14.2213 84.174 15.12H84.774ZM85.2106 12.8221C85.503 12.1023 85.9027 11.4757 86.4091 10.9395L85.9729 10.5275C85.413 11.1203 84.9738 11.8108 84.6547 12.5963L85.2106 12.8221ZM86.409 10.9396C86.9232 10.3955 87.5183 9.97165 88.1958 9.6664L87.9493 9.11936C87.2 9.45699 86.5406 9.92686 85.9729 10.5274L86.409 10.9396ZM88.1958 9.6664C88.8693 9.36298 89.5876 9.21072 90.354 9.21072V8.61072C89.5054 8.61072 88.7028 8.7799 87.9493 9.11936L88.1958 9.6664ZM90.354 9.21072C91.2699 9.21072 92.1099 9.42238 92.8793 9.84412L93.1677 9.31796C92.3065 8.84594 91.3668 8.61072 90.354 8.61072V9.21072ZM92.8793 9.84412C93.6555 10.2695 94.2997 10.8393 94.8144 11.5554L95.3016 11.2052C94.7344 10.4161 94.0222 9.78631 93.1677 9.31796L92.8793 9.84412ZM94.9162 11.1159L92.329 12.5036L92.6126 13.0324L95.1998 11.6447L94.9162 11.1159ZM92.6966 12.5704C92.3945 12.2252 92.0348 11.9564 91.6197 11.7662L91.3697 12.3116C91.7073 12.4663 91.9983 12.6836 92.245 12.9656L92.6966 12.5704ZM91.6219 11.7672C91.2152 11.5768 90.7916 11.4802 90.354 11.4802V12.0802C90.7004 12.0802 91.0373 12.156 91.3675 12.3106L91.6219 11.7672ZM90.354 11.4802C89.7301 11.4802 89.1608 11.6547 88.6549 12.0036L88.9955 12.4975C89.399 12.2193 89.8489 12.0802 90.354 12.0802V11.4802ZM88.6578 12.0016C88.1596 12.3366 87.766 12.783 87.4775 13.3346L88.0091 13.6126C88.2537 13.145 88.5814 12.776 88.9926 12.4995L88.6578 12.0016ZM87.4784 13.3329C87.1876 13.8801 87.0434 14.4776 87.0434 15.12H87.6434C87.6434 14.5708 87.7658 14.0706 88.0082 13.6143L87.4784 13.3329ZM87.0434 15.12C87.0434 15.7553 87.1879 16.3519 87.4775 16.9054L88.0091 16.6274C87.7655 16.1617 87.6434 15.6607 87.6434 15.12H87.0434ZM87.4784 16.9071C87.7672 17.4508 88.1606 17.8923 88.6578 18.2266L88.9926 17.7287C88.5803 17.4515 88.2525 17.0855 88.0082 16.6257L87.4784 16.9071ZM88.6578 18.2266C89.1636 18.5667 89.7318 18.7363 90.354 18.7363V18.1363C89.8473 18.1363 89.3963 18.0002 88.9926 17.7287L88.6578 18.2266ZM90.354 18.7363C90.8055 18.7363 91.2371 18.6405 91.6454 18.4493L91.3911 17.9059C91.0625 18.0597 90.7178 18.1363 90.354 18.1363V18.7363ZM91.6501 18.4471C92.0524 18.2502 92.4013 17.9878 92.6944 17.6603L92.2472 17.2602C92.0072 17.5285 91.721 17.7444 91.3864 17.9081L91.6501 18.4471ZM94.8283 9.24V8.94H94.5283V9.24H94.8283ZM97.6978 9.24H97.9978V8.94H97.6978V9.24ZM97.6978 21V21.3H97.9978V21H97.6978ZM94.8283 21H94.5283V21.3H94.8283V21ZM95.2164 7.31136L95.0072 7.5264L95.0102 7.5293L95.2164 7.31136ZM95.2164 5.20632L95.4256 5.42134L95.4256 5.42134L95.2164 5.20632ZM97.3214 5.20632L97.1093 5.41847L97.1122 5.42134L97.3214 5.20632ZM97.3332 7.31136L97.5423 7.52648L97.5453 7.52349L97.3332 7.31136ZM94.8283 9.54H97.6978V8.94H94.8283V9.54ZM97.3978 9.24V21H97.9978V9.24H97.3978ZM97.6978 20.7H94.8283V21.3H97.6978V20.7ZM95.1283 21V9.24H94.5283V21H95.1283ZM96.2866 7.42296C95.9348 7.42296 95.6533 7.31173 95.4226 7.09342L95.0102 7.5293C95.3596 7.85979 95.7916 8.02296 96.2866 8.02296V7.42296ZM95.4256 7.09634C95.1965 6.87342 95.0813 6.5995 95.0813 6.25296H94.4813C94.4813 6.75314 94.6561 7.18481 95.0072 7.52638L95.4256 7.09634ZM95.0813 6.25296C95.0813 5.916 95.1953 5.64543 95.4256 5.42134L95.0072 4.9913C94.6574 5.33169 94.4813 5.75888 94.4813 6.25296H95.0813ZM95.4256 5.42134C95.658 5.19519 95.9351 5.08296 96.2748 5.08296V4.48296C95.7835 4.48296 95.3549 4.65297 95.0072 4.9913L95.4256 5.42134ZM96.2748 5.08296C96.6144 5.08296 96.8859 5.19499 97.1093 5.41845L97.5336 4.99419C97.1926 4.65316 96.7662 4.48296 96.2748 4.48296V5.08296ZM97.1122 5.42134C97.3426 5.64543 97.4566 5.916 97.4566 6.25296H98.0566C98.0566 5.75888 97.8805 5.33169 97.5306 4.9913L97.1122 5.42134ZM97.4566 6.25296C97.4566 6.60211 97.3434 6.87693 97.1211 7.09923L97.5453 7.52349C97.8875 7.18131 98.0566 6.75053 98.0566 6.25296H97.4566ZM97.1241 7.09626C96.9012 7.31296 96.6288 7.42296 96.2866 7.42296V8.02296C96.7754 8.02296 97.2007 7.85856 97.5423 7.52646L97.1241 7.09626ZM104.946 12.1094V12.4094H105.246V12.1094H104.946ZM102.665 12.1094V11.8094H102.365V12.1094H102.665ZM102.665 21V21.3H102.965V21H102.665ZM99.7955 21H99.4955V21.3H99.7955V21ZM99.7955 12.1094H100.095V11.8094H99.7955V12.1094ZM98.055 12.1094H97.755V12.4094H98.055V12.1094ZM98.055 9.24V8.94H97.755V9.24H98.055ZM99.7955 9.24V9.54H100.095V9.24H99.7955ZM99.7955 5.54736V5.24736H99.4955V5.54736H99.7955ZM102.665 5.54736H102.965V5.24736H102.665V5.54736ZM102.665 9.24H102.365V9.54H102.665V9.24ZM104.946 9.24H105.246V8.94H104.946V9.24ZM104.946 11.8094H102.665V12.4094H104.946V11.8094ZM102.365 12.1094V21H102.965V12.1094H102.365ZM102.665 20.7H99.7955V21.3H102.665V20.7ZM100.095 21V12.1094H99.4955V21H100.095ZM99.7955 11.8094H98.055V12.4094H99.7955V11.8094ZM98.355 12.1094V9.24H97.755V12.1094H98.355ZM98.055 9.54H99.7955V8.94H98.055V9.54ZM100.095 9.24V5.54736H99.4955V9.24H100.095ZM99.7955 5.84736H102.665V5.24736H99.7955V5.84736ZM102.365 5.54736V9.24H102.965V5.54736H102.365ZM102.665 9.54H104.946V8.94H102.665V9.54ZM104.646 9.24V12.1094H105.246V9.24H104.646ZM112.799 9.24V8.94H112.589L112.517 9.1368L112.799 9.24ZM115.845 9.24L116.127 9.34278L116.273 8.94H115.845V9.24ZM109.412 26.88V27.18H109.622L109.694 26.9828L109.412 26.88ZM106.366 26.88L106.084 26.7779L105.939 27.18H106.366V26.88ZM108.495 21L108.777 21.1021L108.814 21.0003L108.777 20.8984L108.495 21ZM104.261 9.24V8.94H103.834L103.979 9.34162L104.261 9.24ZM107.401 9.24L107.687 9.14784L107.619 8.94H107.401V9.24ZM109.929 17.0722L109.644 17.1643L109.912 17.9932L110.211 17.1754L109.929 17.0722ZM112.799 9.54H115.845V8.94H112.799V9.54ZM115.563 9.13722L109.13 26.7772L109.694 26.9828L116.127 9.34278L115.563 9.13722ZM109.412 26.58H106.366V27.18H109.412V26.58ZM106.648 26.9821L108.777 21.1021L108.213 20.8979L106.084 26.7779L106.648 26.9821ZM108.777 20.8984L104.543 9.13838L103.979 9.34162L108.212 21.1016L108.777 20.8984ZM104.261 9.54H107.401V8.94H104.261V9.54ZM107.116 9.33216L109.644 17.1643L110.215 16.98L107.687 9.14784L107.116 9.33216ZM110.211 17.1754L113.081 9.3432L112.517 9.1368L109.648 16.969L110.211 17.1754Z" fill="#F5F5F5" mask="url(#path-4-outside-1_885_81)"/>
<path d="M118.017 8H117.2V4.77776H116.024V4.09568H119.199V4.77776H118.017V8ZM123.178 8H122.413V5.3246L121.684 8H120.873L120.15 5.33636V8H119.391V4.09568H120.591L121.296 6.95924L122.002 4.09568H123.178V8Z" fill="#F5F5F5"/>
</svg>
